<svg width="60" height="60" xmlns="http://www.w3.org/2000/svg" fill="none">

 <g>
  <title>Layer 1</title>
  <path id="svg_2" d="m20.05458,45.53729c-0.77345,1.59875 -1.31499,2.43794 -3.94607,3.27608c-0.46493,0.22843 0.15428,0.7617 0.46493,0.68523c2.32042,-0.91362 2.86195,-1.67631 3.94607,-3.35258c0.54154,2.13413 1.77888,3.50552 3.86842,4.34366l0.15532,-0.45784c2.86301,1.52438 5.02915,1.8293 6.8857,1.44792c1.77993,-0.38135 3.86842,-0.6852 5.57174,-0.45677c-1.08308,-0.83821 -1.70332,-1.82928 -1.93422,-3.04774c1.7789,-1.82922 5.2611,-1.14301 6.96337,-2.20959l-0.38726,-0.83918c3.71414,-1.21847 6.88674,-3.19965 11.2967,-2.58986l-7.27296,-5.18184l0.15428,-0.68626c-2.16615,-1.59979 -4.64189,-1.98118 -7.42827,-0.91358c0.92879,-2.6674 0,-5.5622 2.55444,-7.61978c-0.61919,-1.14304 0,-2.74285 1.08308,-4.19076c0.15534,-2.74283 0.92774,-5.18133 2.32042,-7.39093c-2.2438,1.44792 -4.48657,2.74283 -6.80803,3.8864l-0.38726,-0.83866c-0.92774,1.44839 -2.24381,2.51496 -4.02374,3.12368l-0.3096,-0.83813c-2.39913,2.36253 -5.2611,3.58098 -7.04104,7.01106c0.54154,-3.3536 -0.46492,-6.62971 -1.85758,-9.2966l-0.54154,0.53378c-1.00541,-3.27662 -4.56423,-5.41024 -6.80803,-8.07712c0.92774,7.31491 -1.78099,8.22904 -1.70229,12.26788l-0.92983,0.07542c1.31605,4.1153 -0.46389,6.02 0.38726,8.83933c-2.16615,-1.06658 -4.95254,-0.30491 -6.80909,-1.98119c2.2438,3.50557 3.01833,7.77175 6.80909,10.66753l-0.54154,0.22843c1.39266,1.52333 3.1726,2.81933 6.26754,3.58204z" stroke="#000" fill="none"/>
 </g>
</svg>